<svg width="25" height="22" viewBox="0 0 25 22" fill="none" xmlns="http://www.w3.org/2000/svg">
<path d="M15.3688 20.5779L23.5824 12.2904C24.3348 11.5267 24.3348 10.287 23.5824 9.52586L15.3688 1.23347C14.6101 0.469736 13.3821 0.473568 12.6234 1.23347C11.8723 1.99849 11.8723 3.23305 12.6234 3.99806L17.4285 8.84544L2.01437 8.84544C0.900866 8.84544 -1.90735e-05 9.76016 -1.90735e-05 10.8923C-1.90735e-05 12.0232 0.900866 12.9392 2.01437 12.9392L17.4575 12.9392L12.6234 17.8122C11.8723 18.5759 11.8723 19.8117 12.6234 20.5755C13.3809 21.3405 14.6089 21.3418 15.3688 20.578V20.5779Z" fill="white"/>
</svg>
