<svg width="163" height="283" viewBox="0 0 163 283" fill="none" xmlns="http://www.w3.org/2000/svg">
<path fill-rule="evenodd" clip-rule="evenodd" d="M-5 -7H163V184H-5V-7Z" fill="#4AF6CD"/>
<path d="M55.22 148.36C55.22 145.2 55.68 142.42 56.6 140.02C57.52 137.58 58.9 135.4 60.74 133.48L66.62 138.46C64.34 141.34 63.2 144.36 63.2 147.52C63.2 149.16 63.52 150.42 64.16 151.3C64.76 152.14 65.62 152.56 66.74 152.56C67.54 152.56 68.2 152.34 68.72 151.9C69.24 151.46 69.74 150.72 70.22 149.68C70.7 148.64 71.3 147 72.02 144.76C73.38 140.48 75.1 137.36 77.18 135.4C79.22 133.4 82.06 132.4 85.7 132.4C88.34 132.4 90.68 133.08 92.72 134.44C94.72 135.8 96.28 137.78 97.4 140.38C98.52 142.94 99.08 145.96 99.08 149.44C99.08 156.08 97.06 161.5 93.02 165.7L86.96 160.24C89.68 156.92 91.04 153.46 91.04 149.86C91.04 147.98 90.64 146.52 89.84 145.48C89 144.44 87.9 143.92 86.54 143.92C85.58 143.92 84.8 144.12 84.2 144.52C83.56 144.92 83 145.64 82.52 146.68C82 147.68 81.44 149.16 80.84 151.12C79.36 155.84 77.58 159.16 75.5 161.08C73.42 163 70.8 163.96 67.64 163.96C65.16 163.96 62.98 163.3 61.1 161.98C59.22 160.62 57.78 158.76 56.78 156.4C55.74 154 55.22 151.32 55.22 148.36ZM84.02 94.9553C86.9 94.9553 89.48 95.5953 91.76 96.8753C94.04 98.1153 95.84 99.9953 97.16 102.515C98.44 105.035 99.08 108.115 99.08 111.755C99.08 117.275 97.74 121.455 95.06 124.295C92.34 127.135 88.66 128.555 84.02 128.555H56.3V117.455H83.66C86.18 117.455 88.04 117.015 89.24 116.135C90.4 115.215 90.98 113.755 90.98 111.755C90.98 109.755 90.38 108.315 89.18 107.435C87.98 106.555 86.14 106.115 83.66 106.115H56.3V94.9553H84.02ZM82.64 74.9477V78.0077H98V89.1077H56.3V74.6477C56.3 68.7677 57.36 64.3877 59.48 61.5077C61.6 58.5877 64.86 57.1277 69.26 57.1277C71.9 57.1277 74.1 57.7477 75.86 58.9877C77.62 60.1877 79.2 62.1277 80.6 64.8077L98 54.4277V66.7877L82.64 74.9477ZM75.08 78.0077V74.2877C75.08 70.4477 73.14 68.5277 69.26 68.5277C67.46 68.5277 66.14 69.0677 65.3 70.1477C64.46 71.1877 64.04 72.7677 64.04 74.8877V78.0077H75.08ZM98 51.9006H56.3V26.2806L64.16 27.4206V40.8006H74.18V29.0406H82.04V40.8006H98V51.9006Z" fill="white"/>
<path d="M55.22 260.92C55.22 255.36 56.98 250.58 60.5 246.58L66.2 252.04C65.12 253.56 64.34 254.94 63.86 256.18C63.34 257.38 63.08 258.76 63.08 260.32C63.08 263.32 64.24 265.68 66.56 267.4C68.88 269.08 72.42 269.92 77.18 269.92C80.66 269.92 83.42 269.64 85.46 269.08C87.46 268.52 88.9 267.68 89.78 266.56C90.66 265.4 91.1 263.92 91.1 262.12C91.1 260.32 90.72 258.68 89.96 257.2H81.38V261.94L73.76 263.02V246.46H94.52C95.96 248.62 97.08 251.06 97.88 253.78C98.68 256.5 99.08 259.18 99.08 261.82C99.08 274.86 91.76 281.38 77.12 281.38C72.56 281.38 68.64 280.5 65.36 278.74C62.04 276.94 59.52 274.5 57.8 271.42C56.08 268.34 55.22 264.84 55.22 260.92ZM55.22 223.335C55.22 217.295 57.14 212.595 60.98 209.235C64.82 205.875 70.2 204.195 77.12 204.195C81.64 204.195 85.56 204.955 88.88 206.475C92.16 207.955 94.68 210.135 96.44 213.015C98.2 215.895 99.08 219.335 99.08 223.335C99.08 229.375 97.16 234.075 93.32 237.435C89.48 240.755 84.08 242.415 77.12 242.415C72.6 242.415 68.7 241.675 65.42 240.195C62.14 238.675 59.62 236.495 57.86 233.655C56.1 230.775 55.22 227.335 55.22 223.335ZM63.2 223.335C63.2 225.935 64.28 227.855 66.44 229.095C68.6 230.295 72.16 230.895 77.12 230.895C82.08 230.895 85.66 230.275 87.86 229.035C90.02 227.795 91.1 225.895 91.1 223.335C91.1 220.695 90.02 218.775 87.86 217.575C85.7 216.375 82.12 215.775 77.12 215.775C72.16 215.775 68.6 216.375 66.44 217.575C64.28 218.775 63.2 220.695 63.2 223.335Z" fill="white"/>
<rect x="78" y="194" width="20" height="1" transform="rotate(-90 78 194)" fill="white"/>
</svg>
